<?xml version="1.0" standalone="no"?>
<!DOCTYPE svg PUBLIC "-//W3C//DTD SVG 1.1//EN" "http://www.w3.org/Graphics/SVG/1.1/DTD/svg11.dtd" >
<svg xmlns="http://www.w3.org/2000/svg">
<metadata>
<json>
<![CDATA[
{
	"fontFamily": "site-icons",
	"majorVersion": 1,
	"minorVersion": 0,
	"version": "Version 1.0",
	"fontId": "site-icons",
	"psName": "site-icons",
	"subFamily": "Regular",
	"fullName": "site-icons",
	"description": "Font generated by IcoMoon."
}
]]>
</json>
</metadata>
<defs>
<font id="site-icons" horiz-adv-x="1024">
<font-face units-per-em="1024" ascent="960" descent="-64" />
<missing-glyph horiz-adv-x="1024" />
<glyph unicode="&#x20;" horiz-adv-x="512" d="" />
<glyph unicode="&#xe016;" glyph-name="triangle-bottom" data-tags="triangle-bottom" d="M501.662 261.354l-358.16 358.16q-16.678 16.678-16.678 29.728 0 10.15 9.786 15.95t27.912 5.801h725.018q18.129 0 27.912-5.801t9.786-15.95q0-13.050-16.678-29.728l-358.16-358.16q-10.15-10.15-25.379-10.15t-25.379 10.15z" />
<glyph unicode="&#xe018;" glyph-name="arrow-right" data-tags="arrow-right" d="M783.096 503.868l-436.917 434.523c-28.996 28.812-76.014 28.812-105.010 0-29-28.808-29-75.512 0-104.32l388.191-386.072-388.191-386.067c-29-28.808-29-75.516 0-104.324 28.996-28.808 76.014-28.808 105.010 0l436.917 434.519c15.454 15.352 22.409 35.771 21.392 55.872 1.017 20.101-5.938 40.517-21.392 55.868z" />
<glyph unicode="&#xe019;" glyph-name="arrow-left" data-tags="arrow-left" d="M394.644 448l388.191 386.067c29 28.812 29 75.52 0 104.328-28.996 28.808-76.014 28.808-105.015 0l-436.913-434.528c-15.454-15.352-22.409-35.771-21.392-55.868-1.017-20.101 5.938-40.517 21.392-55.872l436.913-434.523c29-28.812 76.014-28.812 105.015 0 29 28.808 29 75.516 0 104.32l-388.191 386.076z" />
<glyph unicode="&#xe023;" glyph-name="menu" data-tags="menu" d="M128 640h768c35.328 0 64 28.672 64 64s-28.672 64-64 64h-768c-35.328 0-64-28.672-64-64s28.672-64 64-64zM896 512h-768c-35.328 0-64-28.672-64-64s28.672-64 64-64h768c35.328 0 64 28.672 64 64s-28.672 64-64 64zM896 256h-768c-35.328 0-64-28.672-64-64s28.672-64 64-64h768c35.328 0 64 28.672 64 64s-28.672 64-64 64z" />
<glyph unicode="&#xe025;" glyph-name="cross" data-tags="cross" d="M889.542 214.668c-0.004 0.004-0.008 0.008-0.012 0.010l-233.316 233.322 233.316 233.322c0.004 0.004 0.008 0.006 0.012 0.010 2.512 2.514 4.322 5.446 5.488 8.569 3.19 8.544 1.376 18.538-5.5 25.414l-110.218 110.218c-6.876 6.874-16.866 8.686-25.412 5.496-3.12-1.166-6.059-2.976-8.57-5.486 0-0.004-0.004-0.006-0.008-0.010l-233.32-233.324-233.32 233.322c-0.004 0.004-0.006 0.006-0.010 0.010-2.514 2.51-5.446 4.321-8.569 5.486-8.548 3.192-18.538 1.376-25.414-5.496l-110.22-110.22c-6.876-6.876-8.688-16.868-5.498-25.412 1.168-3.12 2.978-6.059 5.488-8.569 0.004-0.002 0.006-0.006 0.010-0.010l233.322-233.32-233.322-233.324c-0.002-0.004-0.006-0.006-0.008-0.010-2.51-2.514-4.321-5.446-5.49-8.569-3.192-8.544-1.376-18.538 5.498-25.414l110.22-110.218c6.878-6.876 16.868-8.688 25.414-5.498 3.12 1.168 6.059 2.978 8.569 5.488 0.002 0.004 0.006 0.006 0.010 0.010l233.32 233.322 233.32-233.322c0.004-0.002 0.008-0.006 0.012-0.008 2.516-2.512 5.446-4.322 8.569-5.49 8.546-3.19 18.54-1.376 25.412 5.498l110.218 110.22c6.876 6.876 8.69 16.87 5.5 25.414-1.168 3.12-2.978 6.059-5.49 8.569z" />
<glyph unicode="&#xe027;" glyph-name="facebook" data-tags="facebook" d="M591.5 713h132.5v159h-132.5c-102.284 0-185.5-83.216-185.5-185.5v-79.5h-106v-159h106v-424h159v424h132.5l26.5 159h-159v79.5c0 14.365 12.135 26.5 26.5 26.5z" />
<glyph unicode="&#xe028;" glyph-name="twitter" data-tags="twitter" d="M925.54 678.68c-30.37-13.57-63.16-22.617-97.41-26.65 35.050 21 61.87 54.28 74.63 93.85-32.79-19.383-69.14-33.6-107.75-41.19-31.017 32.95-75.118 53.47-123.9 53.47-93.69 0-169.619-75.92-169.619-169.619 0-13.25 1.45-26.17 4.36-38.61-141.020 7.11-266.051 74.63-349.73 177.37-14.54-25.040-22.94-54.28-22.94-85.29 0-58.8 29.883-110.818 75.44-141.184-27.783 0.81-53.95 8.56-76.89 21.16 0-0.65 0-1.45 0-2.1 0-82.22 58.48-150.88 136.18-166.385-14.217-3.88-29.24-5.98-44.75-5.98-10.983 0-21.483 1.13-31.983 3.070 21.65-67.36 84.32-116.47 158.47-117.92-58.15-45.55-131.17-72.69-210.81-72.69-13.73 0-27.14 0.81-40.55 2.42 75.28-48.3 164.45-76.25 260.24-76.25 312.090 0 482.84 258.62 482.84 482.84 0 7.43-0.16 14.7-0.483 21.97 33.117 23.75 61.87 53.63 84.65 87.718z" />
<glyph unicode="&#xe029;" glyph-name="gplus" data-tags="gplus" d="M539.702 741.813c12.334-13.956 21.808-29.397 28.379-46.325 6.592-16.932 9.868-34.951 9.868-54.087 0-25.892-5.102-49.416-15.253-70.526-10.169-21.131-24.52-39.244-43.030-54.386-18.532-15.142-40.545-26.893-66.043-35.271-25.518-8.361-53.615-12.56-84.292-12.56-25.104 0-45.631 2.582-61.561 7.778-5.968-7.569-11.862-15.142-17.625-22.711-5.782-7.569-8.661-15.347-8.661-23.314 0-9.568 5.48-17.025 16.439-22.391 10.959-5.406 24.312-9.49 40.057-12.26 15.725-2.787 32.373-4.577 49.904-5.385 17.531-0.792 33.067-1.186 46.628-1.186 24.312 0 48.512-1.621 72.615-4.782 24.106-3.202 45.725-8.981 64.837-17.345s34.688-19.924 46.645-34.668 17.908-33.654 17.908-56.796c0-21.882-5.086-42.109-15.236-60.658-10.169-18.532-23.409-35.349-39.753-50.507-16.328-15.158-34.951-28.588-55.873-40.357s-42.352-21.525-64.254-29.282c-21.919-7.795-43.332-13.652-64.254-17.664-20.905-3.973-39.339-5.952-55.289-5.952-18.738 0-38.661 2.582-59.772 7.758-21.131 5.18-40.545 12.957-58.286 23.314s-32.484 23.199-44.236 38.551-17.609 33.408-17.609 54.16c0 12.317 2.089 24.2 6.272 35.535 4.182 11.374 9.662 22.543 16.439 33.465 6.76 10.959 14.744 21.824 23.918 32.578 9.153 10.754 18.717 21.713 28.679 32.882-5.574 2.787-10.865 6.572-15.836 11.357s-9.264 10.056-12.843 15.836-6.477 11.657-8.661 17.646-3.276 11.752-3.276 17.345c0 12.334 5.574 26.196 16.743 41.543 11.148 15.331 29.471 34.951 54.99 58.868-27.493 13.935-48.926 33.276-64.254 57.982-15.347 24.706-23.012 52.182-23.012 82.482 0 25.104 5.086 48.114 15.236 69.036 10.151 20.884 24.48 38.698 43.012 53.446s40.431 26.196 65.744 34.368c25.309 8.156 53.294 12.24 83.972 12.24 23.918 0 46.025-2.994 66.343-8.964s38.247-14.144 53.783-24.5c38.642 9.962 68.925 17.531 90.844 22.711 21.902 5.18 35.669 7.778 41.223 7.778 11.169 0 16.743-5.968 16.743-17.929 0-7.569-0.394-15.347-1.186-23.314-0.809-7.967-1.806-16.533-2.994-25.707l-114.121 10.169zM276.715 312.694c-10.356-14.35-18.344-27.099-23.918-38.247s-8.361-23.503-8.361-37.081c0-16.743 5.274-30.867 15.836-42.409 10.545-11.583 23.918-20.921 40.036-28.096 16.139-7.175 33.576-12.24 52.297-15.273 18.717-2.976 36.457-4.445 53.2-4.445 13.541 0 28.679 1.394 45.442 4.162 16.743 2.787 32.258 7.458 46.608 14.050s26.401 15.331 36.174 26.29c9.757 10.959 14.633 24.821 14.633 41.563 0 14.35-4.182 25.781-12.56 34.348-8.341 8.569-19.226 15.158-32.562 19.719-13.352 4.593-28.605 7.569-45.725 8.981-17.137 1.394-34.274 2.089-51.394 2.089-9.17 0-19.226 0.189-30.187 0.583-10.98 0.394-22.222 1.186-33.765 2.393-11.563 1.186-23.012 2.693-34.368 4.482-11.374 1.806-21.824 4.088-31.392 6.892zM383.698 517.676c15.536 0 28.983 2.787 40.357 8.361 11.357 5.574 20.622 13.049 27.796 22.411s12.544 20.318 16.139 32.882c3.559 12.544 5.369 25.8 5.369 39.737 0 15.93-1.9 31.77-5.689 47.511-3.784 15.725-9.662 29.886-17.646 42.429-7.967 12.56-18.229 22.616-30.772 30.187-12.56 7.569-27.399 11.357-44.538 11.357-15.536 0-28.888-2.902-40.036-8.661s-20.318-13.426-27.493-22.994-12.449-20.716-15.819-33.465c-3.39-12.749-5.086-26.101-5.086-40.036 0-15.536 1.79-31.072 5.385-46.628s9.264-29.492 17.025-41.843c7.778-12.355 17.835-22.317 30.187-29.886 12.334-7.569 27.288-11.357 44.818-11.357zM797 652.156l-120.13-0.754-1.884 28.626h121.636l-0.378 120.524 29.397 1.884-0.754-122.408h123.159l-5.648-27.119-117.511-0.772-0.735-122.783-26.759 3.768-0.394 119.035z" />
<glyph unicode="&#xe031;" glyph-name="search" data-tags="search" horiz-adv-x="973" d="M935.193 144.765l-236.073 236.073c33.7 55.021 54.132 119.133 54.132 188.456 0 200.923-162.989 363.882-363.882 363.882-200.923 0-363.882-162.96-363.882-363.882 0-200.893 162.96-363.882 363.882-363.882 69.323 0 133.435 20.432 188.456 54.014l236.073-235.955c16.583-16.583 44.064-16.465 60.647 0l60.647 60.647c16.583 16.583 16.583 44.064 0 60.647zM389.37 326.706c-133.968 0-242.588 108.62-242.588 242.588s108.62 242.588 242.588 242.588 242.588-108.62 242.588-242.588-108.62-242.588-242.588-242.588z" />
<glyph unicode="&#xe032;" glyph-name="chevron-right" data-tags="chevron-right" horiz-adv-x="448" d="M128 768l-128-128 192-192-192-192 128-128 320 320-320 320z" />
<glyph unicode="&#xe033;" glyph-name="chevron-left" data-tags="chevron-left" horiz-adv-x="448" d="M448 640l-128 128-320-320 320-320 128 128-192 192 192 192z" />
<glyph unicode="&#xe034;" glyph-name="chevron-up" data-tags="chevron-up" horiz-adv-x="448" d="M358.401 291.2l89.6 89.6-224.001 224.001-224.001-224.001 89.6-89.6 134.4 134.4 134.4-134.4z" />
<glyph unicode="&#xe900;" glyph-name="linegraph" data-tags="linegraph" horiz-adv-x="1344" d="M1248 960c-52.928 0-96-43.072-96-96 0-28.416 12.672-53.728 32.352-71.328l-281.6-448.992c-11.872 5.28-24.96 8.32-38.752 8.32-27.776 0-52.608-12.032-70.176-30.944l-290.336 183.84c5.376 11.968 8.512 25.152 8.512 39.104 0 52.928-43.072 96-96 96s-96-43.072-96-96c0-28.928 13.12-54.592 33.408-72.192l-220.64-351.2c-11.328 4.736-23.744 7.392-36.768 7.392-52.928 0-96-43.072-96-96s43.072-96 96-96 96 43.072 96 96c0 28.416-12.64 53.696-32.32 71.296l220.928 351.68c10.976-4.416 22.88-6.976 35.392-6.976 27.488 0 52.128 11.744 69.632 30.304l290.496-183.936c-5.152-11.776-8.128-24.704-8.128-38.368 0-52.928 43.072-96 96-96s96 43.072 96 96c0 27.616-11.872 52.352-30.624 69.888l281.92 449.472c11.328-4.704 23.712-7.36 36.704-7.36 52.928 0 96 43.072 96 96s-43.072 96-96 96zM160 32c0-35.296-28.704-64-64-64s-64 28.704-64 64 28.704 64 64 64 64-28.704 64-64zM416 480c-35.296 0-64 28.704-64 64s28.704 64 64 64 64-28.704 64-64-28.704-64-64-64zM864 192c-35.296 0-64 28.704-64 64s28.704 64 64 64 64-28.704 64-64-28.704-64-64-64zM1248 800c-35.296 0-64 28.704-64 64s28.704 64 64 64 64-28.704 64-64-28.704-64-64-64z" />
<glyph unicode="&#xe901;" glyph-name="blockchain" data-tags="blockchain" d="M379.552 805.376c0-80.766-65.474-146.24-146.24-146.24s-146.24 65.474-146.24 146.24c0 80.766 65.474 146.24 146.24 146.24s146.24-65.474 146.24-146.24zM690.784 669.92c0-80.766-65.474-146.24-146.24-146.24s-146.24 65.474-146.24 146.24c0 80.766 65.474 146.24 146.24 146.24s146.24-65.474 146.24-146.24zM361.312 456.192c0-80.766-65.474-146.24-146.24-146.24s-146.24 65.474-146.24 146.24c0 80.766 65.474 146.24 146.24 146.24s146.24-65.474 146.24-146.24zM687.232 301.696c0-80.766-65.474-146.24-146.24-146.24s-146.24 65.474-146.24 146.24c0 80.766 65.474 146.24 146.24 146.24s146.24-65.474 146.24-146.24zM1012.352 512.896c0-80.766-65.474-146.24-146.24-146.24s-146.24 65.474-146.24 146.24c0 80.766 65.474 146.24 146.24 146.24s146.24-65.474 146.24-146.24zM379.552 91.52c0-80.766-65.474-146.24-146.24-146.24s-146.24 65.474-146.24 146.24c0 80.766 65.474 146.24 146.24 146.24s146.24-65.474 146.24-146.24zM312.352 548.64c0 0 69.952 20.8 93.184 80.8 0 0 24.768-40.672 54.976-55.072 0 0-114.56-44.608-104.992-90.144l-43.168 64.416zM323.744 179.552c0 0 70.112 20.288 93.792 80.064 0 0 24.48-40.896 54.56-55.52 0 0-114.944-43.68-105.728-89.28l-42.624 64.736zM636.64 398.752c0 0 70.048 20.224 93.856 80.032 0 0 24.416-40.896 54.528-55.552 0 0-114.944-43.68-105.792-89.248l-42.592 64.768z" />
<glyph unicode="&#xe902;" glyph-name="mobapp" data-tags="mobapp" d="M507.936 944.288c7.68-4.448 16.16-7.968 22.912-13.568 11.232-9.344 16.896-21.92 16.896-36.928 0-310.784 0.16-621.536-0.384-932.352-0.064-14.016-10.88-25.44-23.104-32.32-8.352-4.672-18.688-8.064-28.16-8.128-145.536-0.512-291.104-0.384-436.64-0.352-29.28 0.032-51.328 21.92-51.328 51.264-0.128 159.232-0.064 318.432-0.064 477.664-0.032 142.912-0.192 285.76 0.192 428.64 0.064 12.992 1.792 26.688 6.080 38.848 5.12 14.496 19.232 21.248 32.736 27.232 153.6 0 307.232 0 460.864 0zM516.096 431.328c0 0 0 0 0 0 0.032 153.28 0.032 306.528 0.032 459.84-0.032 18.24-3.136 21.312-21.568 21.312-144.608 0.032-289.184 0.032-433.792 0-18.080 0-21.344-3.328-21.408-21.728 0-305.504 0-611.008 0-916.544 0.032-18.688 3.328-21.92 22.336-21.92 144.224 0 288.48 0 432.736 0 18.56 0 21.664 3.072 21.664 21.248 0 152.608 0 305.216 0 457.792zM348.032 464.512c0 11.648 0 22.656 0 33.568 22.848 5.312 28.064 11.808 28.064 34.592 0 42.72 0.032 85.504 0 128.256 0 22.784-8.864 32.032-31.584 32.128-44.256 0.224-88.512 0.192-132.736 0-22.688-0.096-31.52-9.152-31.616-32.192-0.16-42.368-0.16-84.736-0.064-127.136 0.064-23.936 4.704-29.76 27.936-35.744 0-10.944 0-22.016 0-33.056-31.36-1.376-61.984 29.088-62.592 62.848-0.64 34.208-0.192 68.416-0.192 102.624 0 10.4-0.032 20.8 0.064 31.264 0.32 36.832 28.768 65.984 65.536 66.272 43.872 0.384 87.744 0.448 131.616 0.096 41.088-0.352 68.8-28.896 68.8-70.016 0-43.168 0.288-86.272-0.096-129.376-0.288-33.824-28.704-62.848-63.136-64.128zM107.744 786.432c0 9.024 0 17.312 0 26.080 113.664 0 226.976 0 340.992 0 0-8.672 0-17.056 0-26.080-113.6 0-226.912 0-340.992 0zM350.336 876c0-8.672 0-16.928 0-25.856-47.936 0-95.712 0-144.16 0 0 8.224 0 16.672 0 25.856 47.488 0 95.264 0 144.16 0zM79.904 60.16c0 10.752 0 20.288 0 31.104 4.128 0 7.712 0 11.296 0 124.256 0 248.544-0.128 372.832 0.32 10.592 0.032 13.472-3.296 12.384-13.12-0.672-5.824-0.096-11.808-0.096-18.272-132.832-0.032-264.256-0.032-396.416-0.032zM278.464 529.152c32.32-55.456 63.456-109.024 95.808-164.64-23.872 0-46.016 0-69.184 0 0-20.8 0-40 0-60.288-12.928 0-24.736 0-38.112 0 0 19.36 0 38.88 0 59.488-28.288 0-55.136 0-84.768 0 32.448 55.776 63.712 109.536 96.256 165.44zM307.968 402.752c-10.176 17.376-19.296 32.992-29.536 50.528-10.464-17.856-19.584-33.504-29.504-50.528 20.448 0 38.464 0 59.040 0zM410.752 256.448c0-12.48 0-24.032 0-36.512-88.352 0-176.288 0-265.024 0 0 11.872 0 23.712 0 36.512 87.808 0 175.712 0 265.024 0zM386.4 196.8c0-12.288 0-23.424 0-35.712-4.256-0.32-8.128-0.864-12-0.864-63.712-0.032-127.392 0.16-191.104-0.224-9.856-0.064-14.048 2.56-13.088 12.832 0.736 7.52 0.16 15.2 0.16 23.968 72.384 0 143.808 0 216.032 0zM297.824 0c-13.216 0-25.792 0-39.168 0 0 10.016 0 20.128 0 30.72 13.056 0 25.856 0 39.168 0 0-10.464 0-20.32 0-30.72zM569.056 179.584c0 13.344 0 24.48 0 36.672 48.192 2.016 89.408 18.688 120.064 56.768 22.528 28.032 32.96 60.512 32.768 96.128-0.256 41.728-14.208 78.336-44.096 108-29.792 29.568-66.688 42.656-108.64 43.776 0 12.096 0 23.2 0 36.32 60.576-1.44 110.048-25.6 146.88-72.352 49.952-63.392 57.856-133.216 18.816-204.416-35.104-63.872-91.712-96.448-165.792-100.896zM883.616 256.512c-18.464-31.68-36.512-62.688-54.88-94.304-11.552 3.68-22.752 7.616-34.144 10.656-3.328 0.864-8.992 0.384-10.688-1.76-4.416-5.536-14.016-8.448-10.272-18.784 4.128-11.456 7.648-23.2 11.648-35.584-9.44-5.44-18.528-10.848-27.744-16.064-20.128-11.552-40.448-22.88-60.448-34.688-5.184-3.104-8.352-3.040-12.16 1.824-5.024 6.336-10.976 11.872-16.16 18.048-3.36 4.096-6.688 3.936-11.712 3.136-14.912-2.208-21.44-10.016-23.552-24.928-2.816-20.032-3.808-19.872-24.352-19.872-11.616 0-23.264 0-35.744 0 0 10.048 0 19.52 0 30.496 8.192 0 16.48 0.256 24.672-0.096 5.184-0.224 8.384 1.6 8.416 6.752 0.32 21.792 11.136 32.352 32.864 34.272 9.376 0.832 18.208 6.4 27.52 8.896 2.816 0.8 6.464-1.28 9.728-2.144 0.544-0.16 0.832-0.928 1.312-1.408 6.336-6.336 12.032-16.896 19.136-17.952 7.168-1.024 15.68 7.392 23.52 11.744 7.616 4.256 15.424 8.288 22.56 13.216 2.208 1.504 3.84 6.208 3.2 8.896-2.4 10.272-9.76 21.216-7.712 30.208 1.888 8.608 14.912 14.048 20.096 22.656 11.872 19.616 26.56 23.040 45.888 12.192 7.488-4.224 11.84-1.536 15.616 5.888 6.208 12.032 13.28 23.648 20.448 35.168 3.264 5.312 3.392 8.768-1.856 12.992-8.608 6.88-20.224 13.184-23.52 22.272-3.136 8.672 2.848 20.672 4.704 31.2 4.096 23.36 4.064 23.456 27.136 28.288 20.832 4.384 20.768 4.384 20.768 25.984 0 10.016-0.224 20.032 0.16 30.016 0.256 6.016-2.048 8.64-7.968 9.696-11.136 1.952-22.208 4.16-33.088 7.2-3.296 0.864-7.168 4.256-8.352 7.36-4.416 11.744-8.16 23.776-11.264 35.936-0.8 3.104 0.672 8.128 2.976 10.368 9.344 9.344 19.456 17.952 29.248 26.848 0.48 0.384 0.576 1.12 1.184 2.208-9.568 16.448-19.296 33.152-29.504 50.688-14.56-4.608-28.992-8.864-43.232-13.792-5.088-1.792-8.064-0.832-11.712 2.944-7.808 8.128-16.672 15.328-24.352 23.552-2.208 2.304-3.616 7.264-2.816 10.272 3.936 13.952 8.704 27.648 13.568 42.432-17.312 9.952-34.528 19.84-52.256 30.048-10.624-11.616-20.992-22.624-30.944-34.048-3.424-4-6.528-4.832-11.584-3.328-10.464 3.168-21.12 5.824-31.84 8.064-5.152 1.056-7.552 3.392-8.544 8.608-2.24 12.064-5.44 23.904-7.552 35.968-1.056 6.144-3.904 7.872-9.76 7.552-7.68-0.448-15.36-0.096-23.744-0.096 0 10.272 0 19.776 0 30.528 17.568 0 34.912 0.192 52.192-0.32 1.92-0.032 4.64-3.776 5.248-6.24 3.36-13.44 5.92-27.104 9.408-40.512 0.864-3.392 3.744-7.872 6.624-8.736 2.816-0.832 7.744 1.408 10.080 3.904 11.456 11.808 22.368 24.16 34.272 37.216 31.52-18.016 63.008-36.064 94.976-54.304-4.992-15.584-10.112-30.496-14.4-45.632-0.928-3.36-0.544-8.736 1.632-10.976 2.016-2.144 7.392-2.656 10.688-1.696 15.808 4.576 31.36 9.856 47.968 15.2 18.208-31.232 36.352-62.4 54.976-94.272-11.328-10.24-22.752-20.128-33.632-30.624-2.4-2.336-3.744-6.72-3.84-10.176-0.16-5.344 3.008-8.32 8.864-9.344 13.344-2.336 26.496-5.888 39.744-8.288 5.408-0.96 6.912-3.36 6.88-8.352-0.128-32-0.192-64 0.032-96 0.064-5.696-2.944-7.136-7.392-7.936-10.752-2.176-21.632-3.968-32.16-6.88-3.552-0.992-7.776-4.416-9.056-7.744-1.952-5.152-4.736-10.912 2.176-16.288 10.944-8.512 20.832-18.4 31.808-28.224zM1006.176 42.176c-23.808 0-46.912 0-71.264 0 0-24 0-47.104 0-70.848-11.648 0-21.984 0-34.080 0 0 23.168 0 46.464 0 70.688-24.832 0-47.936 0-71.84 0 0 11.648 0 22.304 0 34.144 23.552 0 46.624 0 71.648 0 0 11.136 0 21.088 0 31.104 0 4.672-0.096 9.408-0.096 14.112 0 29.12 2.112 30.752 33.696 24.672 0-22.368 0-45.024 0-69.248 24.576 0 47.84 0 71.936 0 0-12.256 0-22.912 0-34.624zM589.6 860.64c10.048 0 19.232 0 28.928 0 0-12.352 0-24.32 0-37.024-9.44 0-18.848 0-28.928 0 0 12 0 24.192 0 37.024zM946.432 822.912c0 12.288 0 23.904 0 36.448 9.728 0 19.040 0 29.056 0 0-11.808 0-23.712 0-36.448-9.44 0-18.72 0-29.056 0zM618.208 754.656c-10.080 0-19.232 0-28.896 0 0 9.664 0 18.816 0 28.896 9.536 0 19.168 0 28.896 0 0-9.696 0-19.36 0-28.896zM794.72 754.4c-10.016 0-18.944 0-28.608 0 0 9.728 0 19.328 0 29.472 9.44 0 18.784 0 28.608 0 0-9.888 0-19.232 0-29.472zM887.072 784c9.44 0 18.592 0 28.48 0 0-9.376 0-18.784 0-29.024-8.96 0-18.336 0-28.48 0 0 9.056 0 18.432 0 29.024zM975.84 783.904c0-10.080 0-19.264 0-29.088-9.696 0-19.040 0-29.248 0 0 9.728 0 19.136 0 29.088 9.408 0 18.816 0 29.248 0zM678.24 927.84c0-9.536 0-18.72 0-29.28-8.256 0-16.416-0.32-24.608 0.256-1.696 0.096-4.384 3.456-4.512 5.472-0.48 7.552-0.16 15.2-0.16 23.552 9.952 0 19.040 0 29.28 0zM710.112 898.496c0 10.592 0 19.776 0 29.504 9.6 0 18.688 0 29.216 0 0-8.288 0.32-16.512-0.288-24.672-0.096-1.696-3.328-4.48-5.312-4.608-7.584-0.544-15.168-0.224-23.616-0.224zM831.104 898.528c0 10.688 0 19.808 0 29.44 9.792 0 19.104 0 29.408 0 0-8.448 0.32-16.384-0.256-24.192-0.128-1.856-3.072-4.864-4.896-5.024-7.872-0.576-15.776-0.224-24.256-0.224zM645.056 784c9.632 0 18.784 0 28.512 0 0-9.856 0-19.264 0-29.248-9.6 0-18.688 0-28.512 0 0 9.408 0 18.784 0 29.248zM618.336 897.856c-9.696 0.448-19.072 0.896-28.96 1.344 0 9.76 0 18.88 0 28.672 9.504 0 18.88 0 28.96 0 0-9.728 0-19.36 0-30.016zM975.52 899.2c-10.496-0.512-19.616-0.896-29.12-1.344 0 10.4 0 19.776 0 29.92 9.984 0 19.264 0 29.12 0 0-9.376 0-18.688 0-28.576zM705.504 754.656c0 9.824 0 19.2 0 29.184 9.28 0 18.304 0 28.192 0 0-9.472 0-19.072 0-29.184-9.344 0-18.4 0-28.192 0zM799.328 927.904c0-9.792 0-18.912 0-29.376-8.128 0-15.968-0.32-23.744 0.224-1.888 0.128-4.928 3.040-5.088 4.864-0.576 7.84-0.224 15.744-0.224 24.288 9.888 0 18.944 0 29.056 0zM920.416 927.936c0-9.952 0-18.88 0-28.64-9.344 0-18.336 0-28.224 0 0 9.344 0 18.688 0 28.64 9.248 0 18.304 0 28.224 0zM854.72 754.56c-9.408 0-18.208 0-27.872 0 0 9.696 0 19.072 0 29.184 8.96 0 18.016 0 27.872 0 0-9.344 0-18.72 0-29.184z" />
<glyph unicode="&#xe903;" glyph-name="webapp" data-tags="webapp" d="M145.6 961.344c0-13.664 0-27.328 0-42.016-4.736-0.32-8.256-0.704-11.776-0.704-23.424 0-46.88 0.064-70.304-0.032-17.664-0.096-25.952-8.224-25.952-25.792-0.032-167.392 0-334.848 0-502.272 0-2.304 0.224-4.576 0.352-7.424 314.464 0 628.256 0 943.296 0 0 4 0 7.616 0 11.232 0 165.056 0 330.112-0.032 495.232 0 21.76-7.232 29.056-28.736 29.056-57.6 0-115.168 0-172.736 0-3.968 0-7.904 0-13.024 0 0 14.784 0 28.736 0 42.72 68.352 0 136.64 0 204.96 0 0.448-0.48 0.864-1.152 1.376-1.344 36.16-12.032 50.88-32.192 50.88-69.856 0-224.448 0-448.832 0-673.312 0-43.84-26.048-69.984-69.92-70.016-87.072 0-174.144 0-261.28 0-3.808 0-7.616 0-12 0 0-30.016-0.224-58.144 0.32-86.24 0.032-2.688 3.84-6.528 6.72-7.68 12.192-4.64 24.704-8.352 37.088-12.48 16.32-5.408 20.128-10.72 20.16-27.744 0.096-12.288 0.032-24.544 0.032-37.888 15.072 0 28.672 0 42.592 0 0-14.624 0-28.192 0-42.016-185.792 0-370.848 0-556.544 0 0 14.016 0 27.52 0 42.528 14.368 0 28.192 0 42.624 0 0 14.496-0.128 27.52 0.032 40.576 0.128 12.864 4.512 18.976 16.64 23.168 12.928 4.48 25.888 9.056 39.008 12.928 6.496 1.952 9.088 4.672 8.832 11.84-0.608 16.416-0.192 32.8-0.192 49.216 0 10.976 0 21.888 0 33.792-5.376 0-9.344 0-13.28 0-87.744 0-175.52-0.064-263.264 0.064-32.928 0.032-55.744 17.568-64.896 49.248-0.352 1.184-1.184 2.304-1.76 3.456 0 236.48 0 472.992 0 709.472 3.712 8.032 6.72 16.576 11.328 24.096 9.344 15.296 24.64 22.592 40.896 28.16 32.928 0.032 65.696 0.032 98.56 0.032zM37.536 339.2c0-41.76-0.032-82.272 0-122.752 0-19.136 7.808-26.944 26.72-26.944 296.736 0 593.504 0 890.208 0 18.88 0 26.688 7.808 26.688 26.976 0.064 37.856 0.032 75.68 0 113.568 0 2.88-0.448 5.824-0.672 9.152-314.304 0-627.936 0-942.944 0zM381.088 60.64c71.712 0 142.496 0 213.472 0 0-14.528 0-28.096 0-42.4-4.672 0-8.64 0-12.64 0-62.592 0-125.248-0.96-187.872 0.416-25.632 0.64-48.768-6.048-72.064-14.304-2.24-0.768-5.152-3.616-5.312-5.728-0.64-7.552-0.256-15.136-0.256-22.848 129.248 0 257.312 0 385.856 0 0 6.496-0.48 12.192 0.16 17.792 0.704 6.944-1.696 10.112-8.512 11.968-12.256 3.328-24.192 7.776-36.224 11.808-15.52 5.216-19.68 10.944-19.744 27.136-0.032 13.76 0 27.456 0 41.184 0 20.032 0 40.032 0 60.544-86.144 0-171.36 0-256.896 0 0.032-28.416 0.032-56.16 0.032-85.568zM676.192 961.344c4.896-3.968 10.24-7.424 14.72-11.84 46.976-46.784 93.728-93.824 140.768-140.544 6.976-6.848 9.984-14.272 9.984-24-0.256-79.712-0.16-159.424-0.16-239.136 0-3.968 0-7.904 0-12.928 14.592 0 28.16 0 42.496 0 0-14.656 0-28.192 0-42.592-228.128 0-456.288 0-685.664 0 0 7.2 0 14.080 0 21.056 0 6.656 0 13.28 0 20.928 14.56 0 28.096 0 43.232 0 0 5.312 0 9.536 0 13.76 0 112.16 0.704 224.32-0.416 336.512-0.352 36.864 10.4 65.6 53.152 78.688 127.328 0.096 254.56 0.096 381.888 0.096zM798.4 768.352c-28.16 0-55.584-0.064-82.976 0.032-38.816 0.064-66.432 27.424-66.848 66.304-0.224 24.096 0 48.224-0.064 72.352 0 3.552-0.32 7.104-0.544 11.136-3.2 0.192-5.44 0.448-7.712 0.448-110.24 0-220.448 0-330.624-0.032-17.536 0-25.344-8.288-25.376-26.208 0-116.576 0-233.12 0-349.728 0-3.136 0-6.304 0-9.248 172.352 0 343.008 0 514.144 0 0 78.208 0 155.84 0 234.944zM691.808 884.576c0-16.32-0.16-33.216 0.032-50.048 0.16-14.72 8.16-22.976 22.88-23.36 12.384-0.352 24.704-0.064 37.088-0.064 4.704 0 9.376 0 13.6 0-24.96 24.896-49.12 49.024-73.6 73.472zM391.84 683.232c0 14.016 0 27.296 0 41.536 99.584 0 199.040 0 299.936 0 0-7.072 0-14.016 0-20.928 0-6.624 0-13.248 0-20.608-100.256 0-199.488 0-299.936 0zM391.84 597.696c0 13.984 0 27.264 0 41.28 63.84 0 127.52 0 191.776 0 0-13.6 0-27.136 0-41.28-63.776 0-127.168 0-191.776 0z" />
<glyph unicode="&#xe942;" glyph-name="phone" data-tags="phone" d="M704 320c-64-64-64-128-128-128s-128 64-192 128-128 128-128 192 64 64 128 128-128 256-192 256-192-192-192-192c0-128 131.5-387.5 256-512s384-256 512-256c0 0 192 128 192 192s-192 256-256 192z" />
<glyph unicode="&#xe947;" glyph-name="location" data-tags="location" d="M512 960c-176.732 0-320-143.268-320-320 0-320 320-704 320-704s320 384 320 704c0 176.732-143.27 320-320 320zM512 448c-106.040 0-192 85.96-192 192s85.96 192 192 192 192-85.96 192-192-85.96-192-192-192z" />
<glyph unicode="&#xe958;" glyph-name="mobile" data-tags="mobile" d="M736 960h-448c-52.8 0-96-43.2-96-96v-832c0-52.8 43.2-96 96-96h448c52.8 0 96 43.2 96 96v832c0 52.8-43.2 96-96 96zM384 912h256v-32h-256v32zM512 0c-35.346 0-64 28.654-64 64s28.654 64 64 64 64-28.654 64-64-28.654-64-64-64zM768 192h-512v640h512v-640z" />
<glyph unicode="&#xe96f;" glyph-name="chat" data-tags="chat" horiz-adv-x="1152" d="M1088 58.834c0-45.5 26.028-84.908 64-104.184v-15.938c-10.626-1.454-21.472-2.224-32.5-2.224-68.008 0-129.348 28.528-172.722 74.264-26.222-6.982-54.002-10.752-82.778-10.752-159.058 0-288 114.616-288 256s128.942 256 288 256c159.058 0 288-114.616 288-256 0-55.348-19.764-106.592-53.356-148.466-6.824-14.824-10.644-31.312-10.644-48.7zM230.678 738.814c-66.214-53.798-102.678-122.984-102.678-194.814 0-40.298 11.188-79.378 33.252-116.15 22.752-37.92 56.982-72.586 98.988-100.252 30.356-19.992 50.78-51.948 56.176-87.894 1.8-11.984 2.928-24.088 3.37-36.124 7.47 6.194 14.75 12.846 21.88 19.976 24.154 24.152 56.78 37.49 90.502 37.49 5.368 0 10.762-0.336 16.156-1.024 20.948-2.662 42.344-4.016 63.594-4.020v-128c-27.128 0.002-53.754 1.738-79.742 5.042-109.978-109.978-241.25-129.7-368.176-132.596v26.916c68.536 33.578 128 94.74 128 164.636 0 9.754-0.758 19.33-2.164 28.696-115.796 76.264-189.836 192.754-189.836 323.304 0 229.75 229.23 416 512 416 278.458 0 504.992-180.614 511.836-405.52-41.096 18.316-85.84 29.422-132.262 32.578-11.53 56.068-45.402 108.816-98.252 151.756-35.322 28.698-76.916 51.39-123.628 67.444-49.706 17.080-102.76 25.742-157.694 25.742-54.932 0-107.988-8.662-157.694-25.742-46.712-16.054-88.306-38.744-123.628-67.444z" />
<glyph unicode="&#xe9ae;" glyph-name="briefcase" data-tags="briefcase" d="M960 704h-256v64c0 35.2-28.8 64-64 64h-256c-35.204 0-64-28.8-64-64v-64h-256c-35.2 0-64-28.8-64-64v-576c0-35.202 28.796-64 64-64h896c35.2 0 64 28.798 64 64v576c0 35.2-28.8 64-64 64zM384 767.884c0.034 0.040 0.074 0.082 0.114 0.116h255.772c0.042-0.034 0.082-0.076 0.118-0.116v-63.884h-256.004v63.884zM960 448h-128v-96c0-17.602-14.4-32-32-32h-64c-17.604 0-32 14.398-32 32v96h-384v-96c0-17.602-14.4-32-32-32h-64c-17.602 0-32 14.398-32 32v96h-128v64h896v-64z" />
<glyph unicode="&#xe9c9;" glyph-name="sphere" data-tags="sphere" d="M480 896c-265.096 0-480-214.904-480-480 0-265.098 214.904-480 480-480 265.098 0 480 214.902 480 480 0 265.096-214.902 480-480 480zM751.59 256c8.58 40.454 13.996 83.392 15.758 128h127.446c-3.336-44.196-13.624-87.114-30.68-128h-112.524zM208.41 576c-8.58-40.454-13.996-83.392-15.758-128h-127.444c3.336 44.194 13.622 87.114 30.678 128h112.524zM686.036 576c9.614-40.962 15.398-83.854 17.28-128h-191.316v128h174.036zM512 640v187.338c14.59-4.246 29.044-11.37 43.228-21.37 26.582-18.74 52.012-47.608 73.54-83.486 14.882-24.802 27.752-52.416 38.496-82.484h-155.264zM331.232 722.484c21.528 35.878 46.956 64.748 73.54 83.486 14.182 10 28.638 17.124 43.228 21.37v-187.34h-155.264c10.746 30.066 23.616 57.68 38.496 82.484zM448 576v-128h-191.314c1.88 44.146 7.666 87.038 17.278 128h174.036zM95.888 256c-17.056 40.886-27.342 83.804-30.678 128h127.444c1.762-44.608 7.178-87.546 15.758-128h-112.524zM256.686 384h191.314v-128h-174.036c-9.612 40.96-15.398 83.854-17.278 128zM448 192v-187.34c-14.588 4.246-29.044 11.372-43.228 21.37-26.584 18.74-52.014 47.61-73.54 83.486-14.882 24.804-27.75 52.418-38.498 82.484h155.266zM628.768 109.516c-21.528-35.876-46.958-64.746-73.54-83.486-14.184-9.998-28.638-17.124-43.228-21.37v187.34h155.266c-10.746-30.066-23.616-57.68-38.498-82.484zM512 256v128h191.314c-1.88-44.146-7.666-87.040-17.28-128h-174.034zM767.348 448c-1.762 44.608-7.178 87.546-15.758 128h112.524c17.056-40.886 27.344-83.806 30.68-128h-127.446zM830.658 640h-95.9c-18.638 58.762-44.376 110.294-75.316 151.428 42.536-20.34 81.058-47.616 114.714-81.272 21.48-21.478 40.362-44.938 56.502-70.156zM185.844 710.156c33.658 33.658 72.18 60.932 114.714 81.272-30.942-41.134-56.676-92.666-75.316-151.428h-95.898c16.138 25.218 35.022 48.678 56.5 70.156zM129.344 192h95.898c18.64-58.762 44.376-110.294 75.318-151.43-42.536 20.34-81.058 47.616-114.714 81.274-21.48 21.478-40.364 44.938-56.502 70.156zM774.156 121.844c-33.656-33.658-72.18-60.934-114.714-81.274 30.942 41.134 56.678 92.668 75.316 151.43h95.9c-16.14-25.218-35.022-48.678-56.502-70.156z" />
<glyph unicode="&#xe9ca;" glyph-name="earth" data-tags="earth" d="M512 960c-282.77 0-512-229.23-512-512s229.23-512 512-512 512 229.23 512 512-229.23 512-512 512zM512-0.002c-62.958 0-122.872 13.012-177.23 36.452l233.148 262.29c5.206 5.858 8.082 13.422 8.082 21.26v96c0 17.674-14.326 32-32 32-112.99 0-232.204 117.462-233.374 118.626-6 6.002-14.14 9.374-22.626 9.374h-128c-17.672 0-32-14.328-32-32v-192c0-12.122 6.848-23.202 17.69-28.622l110.31-55.156v-187.886c-116.052 80.956-192 215.432-192 367.664 0 68.714 15.49 133.806 43.138 192h116.862c8.488 0 16.626 3.372 22.628 9.372l128 128c6 6.002 9.372 14.14 9.372 22.628v77.412c40.562 12.074 83.518 18.588 128 18.588 70.406 0 137.004-16.26 196.282-45.2-4.144-3.502-8.176-7.164-12.046-11.036-36.266-36.264-56.236-84.478-56.236-135.764s19.97-99.5 56.236-135.764c36.434-36.432 85.218-56.264 135.634-56.26 3.166 0 6.342 0.080 9.518 0.236 13.814-51.802 38.752-186.656-8.404-372.334-0.444-1.744-0.696-3.488-0.842-5.224-81.324-83.080-194.7-134.656-320.142-134.656z" />
<glyph unicode="&#xe9e1;" glyph-name="smile" data-tags="smile" d="M512-64c282.77 0 512 229.23 512 512s-229.23 512-512 512-512-229.23-512-512 229.23-512 512-512zM512 864c229.75 0 416-186.25 416-416s-186.25-416-416-416-416 186.25-416 416 186.25 416 416 416zM256 640c0 35.346 28.654 64 64 64s64-28.654 64-64c0-35.346-28.654-64-64-64s-64 28.654-64 64zM640 640c0 35.346 28.654 64 64 64s64-28.654 64-64c0-35.346-28.654-64-64-64s-64 28.654-64 64zM704.098 332.74l82.328-49.396c-55.962-93.070-157.916-155.344-274.426-155.344s-218.464 62.274-274.426 155.344l82.328 49.396c39.174-65.148 110.542-108.74 192.098-108.74s152.924 43.592 192.098 108.74z" />
<glyph unicode="&#xea1c;" glyph-name="play3" data-tags="play3" d="M192 832l640-384-640-384z" />
<glyph unicode="&#xea7f;" glyph-name="embed" data-tags="embed" d="M576 224l96-96 320 320-320 320-96-96 224-224zM448 672l-96 96-320-320 320-320 96 96-224 224z" />
<glyph unicode="&#xea9d;" glyph-name="youtube" data-tags="youtube" d="M1013.8 652.8c0 0-10 70.6-40.8 101.6-39 40.8-82.6 41-102.6 43.4-143.2 10.4-358.2 10.4-358.2 10.4h-0.4c0 0-215 0-358.2-10.4-20-2.4-63.6-2.6-102.6-43.4-30.8-31-40.6-101.6-40.6-101.6s-10.2-82.8-10.2-165.8v-77.6c0-82.8 10.2-165.8 10.2-165.8s10-70.6 40.6-101.6c39-40.8 90.2-39.4 113-43.8 82-7.8 348.2-10.2 348.2-10.2s215.2 0.4 358.4 10.6c20 2.4 63.6 2.6 102.6 43.4 30.8 31 40.8 101.6 40.8 101.6s10.2 82.8 10.2 165.8v77.6c-0.2 82.8-10.4 165.8-10.4 165.8zM406.2 315.2v287.8l276.6-144.4-276.6-143.4z" />
<glyph unicode="&#xeab7;" glyph-name="blogger" data-tags="blogger" d="M957.796 576h-57.406c-35.166 0-65.988 29.742-68.39 64v0c0.004 182.668-147.258 320-331.19 320h-167.824c-183.812 0-332.856-148-332.986-330.666v-362.798c0-182.654 149.174-330.536 332.984-330.536h358.42c183.948 0 332.596 147.882 332.596 330.536v234.382c0 36.502-29.44 75.082-66.204 75.082zM320 704h192c35.2 0 64-28.8 64-64s-28.8-64-64-64h-192c-35.2 0-64 28.8-64 64s28.8 64 64 64zM704 192h-384c-35.2 0-64 28.8-64 64s28.8 64 64 64h384c35.2 0 64-28.8 64-64s-28.8-64-64-64z" />
<glyph unicode="&#xeac5;" glyph-name="skype" data-tags="skype" d="M425.6 922.6c-1.6 1-3.4 1.8-5 2.6-1.8-0.4-3.4-0.6-5.2-1l10.2-1.6zM36.8 539c-0.4-1.8-0.6-3.6-0.8-5.2 1-1.6 1.6-3.2 2.6-4.8l-1.8 10zM986.8 357.4c0.4 1.8 0.6 3.6 1 5.4-1 1.6-1.6 3.2-2.6 4.8l1.6-10.2zM592-23c1.6-1 3.4-1.8 5-2.6 1.8 0.4 3.6 0.6 5.4 0.8l-10.4 1.8zM987.8 362.8c-0.4-1.8-0.6-3.6-1-5.4l-1.8 10.4c1-1.8 1.8-3.4 2.8-5 5.2 28.8 8 58.2 8 87.6 0 65.2-12.8 128.6-38 188.2-24.4 57.6-59.2 109.4-103.6 153.8s-96.2 79.2-153.6 103.6c-59.6 25.2-123 38-188.2 38-30.8 0-61.6-2.8-91.6-8.6 0 0-0.2 0-0.2 0 1.6-0.8 3.4-1.6 5-2.6l-10.2 1.6c1.8 0.4 3.4 0.6 5.2 1-41.2 21.8-87.4 33.6-134.2 33.6-76.4 0-148.4-29.8-202.4-83.8s-83.8-126-83.8-202.4c0-48.6 12.6-96.6 36-138.8 0.4 1.8 0.6 3.6 0.8 5.2l1.8-10.2c-1 1.6-1.8 3.2-2.6 4.8-4.8-27.4-7.2-55.4-7.2-83.4 0-65.2 12.8-128.6 38-188.2 24.4-57.6 59.2-109.2 103.6-153.6s96.2-79.2 153.8-103.6c59.6-25.2 123-38 188.2-38 28.4 0 56.8 2.6 84.6 7.6-1.6 1-3.2 1.8-5 2.6l10.4-1.8c-1.8-0.4-3.6-0.6-5.4-0.8 42.8-24.2 91.4-37.2 140.8-37.2 76.4 0 148.4 29.8 202.4 83.8s83.8 126 83.8 202.4c-0.2 48.6-12.8 96.6-36.4 139.2zM514.2 154.2c-171.8 0-248.6 84.4-248.6 147.8 0 32.4 24 55.2 57 55.2 73.6 0 54.4-105.6 191.6-105.6 70.2 0 109 38.2 109 77.2 0 23.4-11.6 49.4-57.8 60.8l-152.8 38.2c-123 30.8-145.4 97.4-145.4 160 0 129.8 122.2 178.6 237 178.6 105.8 0 230.4-58.4 230.4-136.4 0-33.4-29-52.8-62-52.8-62.8 0-51.2 86.8-177.6 86.8-62.8 0-97.4-28.4-97.4-69s49.6-53.6 92.6-63.4l113.2-25.2c123.8-27.6 155.2-100 155.2-168 0-105.4-81-184.2-244.4-184.2z" />
<glyph unicode="&#xeaca;" glyph-name="linkedin2" data-tags="linkedin2" d="M384 576h177.106v-90.782h2.532c24.64 44.194 84.958 90.782 174.842 90.782 186.946 0 221.52-116.376 221.52-267.734v-308.266h-184.61v273.278c0 65.184-1.334 149.026-96.028 149.026-96.148 0-110.82-70.986-110.82-144.292v-278.012h-184.542v576zM64 576h192v-576h-192v576zM256 736c0-53.019-42.981-96-96-96s-96 42.981-96 96c0 53.019 42.981 96 96 96s96-42.981 96-96z" />
<glyph unicode="&#xf0e0;" glyph-name="envelope" data-tags="envelope" d="M1024 545.143v-453.714c0-50.286-41.143-91.429-91.429-91.429h-841.143c-50.286 0-91.429 41.143-91.429 91.429v453.714c17.143-18.857 36.571-35.429 57.714-49.714 94.857-64.571 190.857-129.143 284-197.143 48-35.429 107.429-78.857 169.714-78.857h1.143c62.286 0 121.714 43.429 169.714 78.857 93.143 67.429 189.143 132.571 284.571 197.143 20.571 14.286 40 30.857 57.143 49.714zM1024 713.143c0-64-47.429-121.714-97.714-156.571-89.143-61.714-178.857-123.429-267.429-185.714-37.143-25.714-100-78.286-146.286-78.286h-1.143c-46.286 0-109.143 52.571-146.286 78.286-88.571 62.286-178.286 124-266.857 185.714-40.571 27.429-98.286 92-98.286 144 0 56 30.286 104 91.429 104h841.143c49.714 0 91.429-41.143 91.429-91.429z" />
</font>
</defs>
</svg>
