<svg id="svg" version="1.1" width="417" height="417" xmlns="http://www.w3.org/2000/svg" xmlns:xlink="http://www.w3.org/1999/xlink" ><g id="svgg"><path id="path0" d="M219.433 54.065 C 209.057 57.934,203.297 67.837,205.241 78.466 L 205.912 82.138 164.048 103.402 L 122.184 124.667 116.422 119.063 C 96.436 99.627,63.917 113.225,63.836 141.053 C 63.810 149.704,67.704 158.916,73.561 164.058 L 77.059 167.130 69.489 182.366 L 61.918 197.602 57.689 197.602 C 30.139 197.602,27.159 237.208,54.466 240.442 L 59.248 241.008 68.953 263.670 C 80.424 290.454,79.863 286.411,73.055 293.218 C 60.689 305.584,60.503 325.251,72.638 337.386 C 89.715 354.464,120.826 345.368,125.207 322.018 L 125.873 318.465 196.113 318.465 L 266.352 318.465 267.922 324.112 C 272.782 341.592,291.866 350.825,309.500 344.227 C 328.731 337.032,335.125 310.808,321.447 295.229 L 318.397 291.755 329.212 270.098 L 340.028 248.441 343.943 248.441 C 350.124 248.441,357.705 244.082,361.048 238.604 C 370.209 223.592,360.106 205.839,342.446 205.917 L 336.211 205.944 325.349 186.990 L 314.487 168.036 318.854 164.010 C 346.606 138.429,311.915 94.279,280.453 115.137 L 276.494 117.762 260.660 101.807 L 244.825 85.851 246.110 82.974 C 253.343 66.779,235.933 47.913,219.433 54.065 M213.622 91.607 C 216.094 93.372,217.485 95.041,217.222 95.923 C 216.986 96.715,212.563 107.290,207.393 119.424 L 197.994 141.487 193.638 141.993 C 183.499 143.172,178.484 152.353,183.067 161.344 L 184.840 164.820 167.959 181.525 L 151.079 198.229 147.722 196.424 C 145.333 195.141,143.211 194.765,140.366 195.123 L 136.366 195.625 124.390 181.506 L 112.414 167.386 116.563 163.289 C 123.390 156.548,125.180 151.809,125.180 140.477 L 125.180 130.835 166.906 109.586 C 189.856 97.898,208.849 88.425,209.113 88.533 C 209.376 88.641,211.406 90.024,213.622 91.607 M268.942 129.441 C 264.410 140.641,266.704 153.435,274.799 162.110 L 277.931 165.468 269.671 184.918 C 261.552 204.034,261.367 204.358,258.862 203.808 C 257.461 203.500,254.816 203.874,252.986 204.639 L 249.659 206.029 228.248 184.603 C 207.476 163.815,206.871 163.102,207.975 160.680 C 210.319 155.535,208.356 147.398,204.042 144.376 C 202.142 143.045,202.317 142.503,212.069 119.469 L 222.038 95.923 226.403 95.923 C 229.092 95.923,232.412 95.071,235.049 93.705 L 239.329 91.486 255.385 107.374 L 271.442 123.261 268.942 129.441 M193.379 169.079 C 194.305 170.005,194.839 194.724,193.934 194.724 C 191.654 194.724,186.070 200.807,184.965 204.494 L 183.816 208.330 178.958 207.797 C 176.287 207.503,169.937 206.984,164.847 206.643 C 150.046 205.650,150.076 205.536,170.596 184.841 C 187.620 167.673,190.193 165.893,193.379 169.079 M222.774 189.680 C 234.781 201.679,244.604 212.099,244.604 212.838 C 244.604 213.951,242.596 214.069,232.854 213.528 C 215.275 212.551,214.868 212.437,214.868 208.488 C 214.868 201.483,209.590 195.148,202.841 194.053 C 199.875 193.572,199.561 193.194,199.118 189.569 C 197.121 173.235,197.450 167.974,200.472 167.880 C 200.732 167.872,210.768 177.682,222.774 189.680 M297.389 171.925 C 300.832 171.948,304.501 171.702,305.542 171.378 C 307.174 170.869,308.973 173.458,318.622 190.190 L 329.809 209.592 327.604 211.990 C 326.391 213.309,324.647 215.899,323.729 217.746 C 322.810 219.592,321.965 221.215,321.851 221.352 C 321.738 221.489,310.461 220.734,296.793 219.675 C 283.125 218.615,271.869 217.748,271.779 217.747 C 271.689 217.746,271.318 216.343,270.954 214.628 C 270.591 212.914,269.255 210.128,267.985 208.437 L 265.676 205.363 273.519 186.765 L 281.361 168.166 286.244 170.025 C 289.192 171.147,293.609 171.900,297.389 171.925 M120.682 183.979 L 132.290 197.694 130.417 200.766 C 129.387 202.455,128.536 204.700,128.526 205.755 C 128.491 209.475,127.148 209.869,105.995 212.373 C 94.388 213.746,83.381 215.105,81.535 215.392 C 78.241 215.905,78.145 215.824,76.490 211.162 C 75.501 208.374,73.482 205.282,71.609 203.684 L 68.415 200.959 75.974 185.784 L 83.532 170.608 86.610 171.302 C 90.953 172.280,100.749 172.021,103.597 170.853 C 107.759 169.146,108.814 169.957,120.682 183.979 M174.896 211.596 C 182.356 212.098,184.439 212.555,184.870 213.789 C 186.172 217.508,190.188 221.523,194.103 223.018 L 198.310 224.625 198.938 234.855 C 199.284 240.481,199.821 247.934,200.133 251.418 C 201.125 262.504,199.941 261.829,175.548 237.418 C 154.736 216.591,154.244 216.009,154.910 212.979 L 155.591 209.875 160.529 210.419 C 163.245 210.718,169.710 211.247,174.896 211.596 M129.496 214.795 C 129.496 215.282,130.602 216.994,131.954 218.600 L 134.411 221.520 120.706 253.969 L 107.002 286.417 102.182 285.145 C 99.531 284.444,94.802 283.993,91.673 284.142 L 85.985 284.412 76.099 261.458 C 70.661 248.833,66.315 238.456,66.440 238.398 C 71.755 235.916,77.698 227.467,77.698 222.392 L 77.698 219.970 100.000 217.371 C 112.266 215.941,122.950 214.627,123.741 214.451 C 126.759 213.780,129.496 213.944,129.496 214.795 M226.859 217.248 C 242.423 218.147,243.126 218.335,244.435 221.955 C 246.003 226.290,250.219 230.017,254.583 230.924 L 258.286 231.693 270.119 259.012 C 282.888 288.491,282.797 288.223,280.394 289.146 C 278.431 289.899,281.082 292.565,242.846 251.389 C 214.547 220.913,209.659 214.794,214.742 216.204 C 215.603 216.443,221.055 216.913,226.859 217.248 M190.532 267.910 L 189.415 271.766 156.338 282.610 C 115.686 295.937,119.329 295.182,114.735 291.233 L 111.005 288.026 124.807 255.300 L 138.609 222.573 141.966 222.543 C 143.813 222.526,145.971 222.098,146.763 221.592 C 147.892 220.869,152.878 225.340,169.925 242.363 L 191.648 264.054 190.532 267.910 M237.418 252.758 C 252.084 268.585,266.594 284.125,269.661 287.290 C 279.359 297.299,277.413 297.122,245.916 285.129 L 218.225 274.585 217.702 270.386 C 216.840 263.477,213.080 258.847,207.300 257.577 L 204.619 256.988 203.458 240.615 C 202.819 231.610,202.427 224.166,202.587 224.073 C 205.024 222.654,208.798 222.048,209.692 222.933 C 210.275 223.509,222.751 236.930,237.418 252.758 M298.051 223.995 C 308.718 224.779,318.266 225.420,319.270 225.420 C 320.731 225.420,321.220 226.357,321.718 230.110 C 322.244 234.078,325.696 240.996,327.994 242.686 C 328.352 242.950,329.616 243.870,330.803 244.732 L 332.960 246.298 322.665 266.914 L 312.371 287.530 308.943 286.078 C 305.198 284.492,295.013 283.992,289.674 285.133 L 286.302 285.854 274.540 258.355 L 262.778 230.857 266.104 228.116 C 267.933 226.608,269.696 224.533,270.023 223.505 C 270.521 221.934,271.260 221.710,274.637 222.103 C 276.848 222.360,287.384 223.212,298.051 223.995 M193.301 279.413 C 197.194 285.615,207.077 286.476,213.210 281.147 L 216.307 278.456 243.165 288.702 C 262.039 295.901,269.962 299.354,269.817 300.313 C 269.703 301.064,268.859 303.945,267.942 306.715 L 266.276 311.751 196.207 311.730 L 126.139 311.710 124.075 305.255 C 121.553 297.373,117.003 299.971,155.586 287.262 C 193.201 274.871,190.767 275.378,193.301 279.413 " stroke="none" fill="#ebebeb" fill-rule="evenodd"></path></g></svg>